<?xml version="1.0" encoding="UTF-8"?>
<svg width="151px" height="99px" viewBox="0 0 151 99" version="1.1" xmlns="http://www.w3.org/2000/svg" xmlns:xlink="http://www.w3.org/1999/xlink">
    <!-- Generator: Sketch 50.2 (55047) - http://www.bohemiancoding.com/sketch -->
    <title>icon_15 copy</title>
    <desc>Created with Sketch.</desc>
    <defs/>
    <g id="icons" stroke="none" stroke-width="1" fill="none" fill-rule="evenodd">
        <g id="Icons" transform="translate(-862.000000, -1357.000000)" fill="#E5EFF0">
            <g id="icon_15-copy" transform="translate(862.000000, 1357.000000)">
                <path d="M14.1912524,20.5052223 C10.6314495,20.5052223 7.73533872,17.6290215 7.73533872,14.0936913 C7.73533872,10.5583611 10.6314495,7.68216032 14.1912524,7.68216032 C17.7526024,7.68216032 20.6487132,10.5583611 20.6487132,14.0936913 C20.6487132,17.6290215 17.7526024,20.5052223 14.1912524,20.5052223 M137.040808,61.537177 C129.665936,61.537177 123.623089,67.2527043 123.132669,74.4554978 L63.5752018,84.3485838 L81.437646,43.0170249 C82.4184869,43.2643905 83.4395517,43.4088151 84.4961989,43.4088151 C91.3821975,43.4088151 96.9640179,37.8653682 96.9640179,31.0282455 C96.9640179,24.1895864 91.3821975,18.647676 84.4961989,18.647676 C79.6059178,18.647676 75.385517,21.4516645 73.3433876,25.5232094 L28.3562047,14.6391247 C28.3623929,14.4562893 28.3840519,14.2780632 28.3840519,14.0936913 C28.3840519,6.32395437 22.0178681,0 14.1912524,0 C6.36618376,0 0,6.32395437 0,14.0936913 C0,21.8649647 6.36618376,28.1873826 14.1912524,28.1873826 C19.0830806,28.1873826 23.4055879,25.7167999 25.9582497,21.9648328 L72.2294988,33.1592768 C72.600795,35.2872352 73.5104709,37.2308218 74.8270255,38.8363933 L56.5112905,81.2173353 C56.4215606,81.2142624 56.3333777,81.2035074 56.2436478,81.2035074 C51.2945781,81.2035074 47.2845785,85.1874758 47.2845785,90.1009855 C47.2845785,95.0160317 51.2945781,99 56.2436478,99 C60.5723433,99 64.1847465,95.9501824 65.0201631,91.8970746 L124.758637,81.9747963 C127.121009,86.3090712 131.739007,89.2605572 137.040808,89.2605572 C144.73747,89.2605572 151,83.0410802 151,75.3988671 C151,67.7551176 144.73747,61.537177 137.040808,61.537177" id="Fill-83"/>
            </g>
        </g>
    </g>
</svg>