<?xml version="1.0" encoding="UTF-8"?>
<svg width="155px" height="138px" viewBox="0 0 155 138" version="1.1" xmlns="http://www.w3.org/2000/svg" xmlns:xlink="http://www.w3.org/1999/xlink">
    <!-- Generator: Sketch 50.2 (55047) - http://www.bohemiancoding.com/sketch -->
    <title>icon_01 copy</title>
    <desc>Created with Sketch.</desc>
    <defs/>
    <g id="icons" stroke="none" stroke-width="1" fill="none" fill-rule="evenodd">
        <g id="Icons" transform="translate(-126.000000, -954.000000)" fill="#E5EFF0">
            <g id="icon_01-copy" transform="translate(126.000000, 954.000000)">
                <path d="M146.246561,20.1099034 C144.811262,21.7046689 142.841213,22.6463252 140.700663,22.7580209 C138.560114,22.8697165 136.503265,22.1421435 134.908315,20.7040621 C133.314916,19.2690834 132.375616,17.297345 132.264016,15.1534092 C132.150866,13.0110248 132.879366,10.9508607 134.314665,9.35609512 C135.749965,7.76132956 137.718464,6.8227759 139.860564,6.70952892 C140.004714,6.70022095 140.147314,6.6971183 140.289913,6.6971183 C142.275463,6.6971183 144.166462,7.42158865 145.652912,8.76348768 C147.247861,10.1969151 148.185611,12.1702048 148.298761,14.3125893 C148.410361,16.4565251 147.681861,18.5151378 146.246561,20.1099034 M138.433014,115.9277 C140.392213,116.801098 141.894163,118.385004 142.662963,120.38932 C144.248612,124.525162 142.177813,129.18225 138.045514,130.769258 C133.910116,132.354716 129.258567,130.283693 127.672918,126.147851 C126.085718,122.01201 128.158068,117.354922 132.290366,115.766362 C134.291415,114.995352 136.472265,115.052751 138.433014,115.9277 M96.0265783,117.379743 C95.4716785,119.452318 94.1433289,121.185152 92.2864296,122.258671 C90.4279802,123.333742 88.2657309,123.617635 86.1933816,123.060708 C84.1225823,122.506884 82.3912329,121.175844 81.3186332,119.317352 C80.2475836,117.458861 79.9623837,115.293207 80.5172835,113.222183 C80.5172835,113.222183 80.5172835,113.222183 80.5172835,113.220632 C81.0721833,111.148057 82.4005329,109.413672 84.2574322,108.341704 C85.4958818,107.626542 86.8676314,107.26198 88.2579809,107.26198 C88.9570307,107.26198 89.6591804,107.351957 90.3504802,107.538116 C92.4212795,108.093492 94.1526289,109.42298 95.2252286,111.281472 C96.2962782,113.141514 96.5814781,115.305617 96.0265783,117.379743 M22.317903,27.4135573 C21.6188532,29.4442462 20.1742537,31.0777949 18.2460543,32.0210026 C16.317855,32.9595562 14.1401057,33.0929705 12.1127064,32.3948727 C10.0853071,31.6967749 8.45160762,30.2493856 7.51075793,28.3210844 C6.56990825,26.3912319 6.43660829,24.2116156 7.13565806,22.1809267 C8.27955767,18.8548787 11.3997066,16.7621367 14.7337555,16.7621367 C15.5986552,16.7621367 16.4775049,16.9033076 17.3408546,17.2011627 C21.5258532,18.6423467 23.7594025,23.2249707 22.317903,27.4135573 M154.979259,13.961989 C154.773109,10.0324743 153.051059,6.41787919 150.12931,3.78682628 C147.209111,1.15111938 143.451912,-0.196984968 139.510264,0.0233036606 C135.584115,0.228079005 131.974166,1.95160482 129.342267,4.87585879 C126.711918,7.80011277 125.375818,11.5744947 125.581968,15.5040094 C125.727668,18.2917465 126.649918,20.9150428 128.210768,23.145853 L116.754721,35.8807075 C113.437722,34.1044366 109.654174,33.0929705 105.628825,33.0929705 C96.6729281,33.0929705 88.8826307,38.0804912 84.871232,45.4291337 L29.3580006,26.2981522 C29.6416505,23.5895329 29.1782007,20.849887 27.9552511,18.3398377 C26.2316517,14.802809 23.2355027,12.1500375 19.5186039,10.8686403 C11.8461065,8.22983073 3.45285929,12.322235 0.810110173,20.0028617 C-0.470189398,23.7213958 -0.22683948,27.7176177 1.49675994,31.2561977 C3.22035937,34.791675 6.21650836,37.4459979 9.93495712,38.7273951 C11.5051066,39.2672574 13.1264061,39.5356372 14.7399555,39.5356372 C16.9440548,39.5356372 19.138854,39.0345581 21.1786534,38.0401566 C23.6865525,36.8161586 25.7356518,34.9406026 27.1802513,32.6306746 L82.5431328,51.7104622 C82.1897329,53.3362543 81.992883,55.0194456 81.992883,56.7507281 C81.992883,65.9268354 87.2210313,73.8634313 94.8516787,77.7898434 L88.7477807,100.586614 C86.0275316,100.491983 83.3289826,101.146643 80.9125334,102.541288 C77.5071845,104.508372 75.0736853,107.685492 74.0553357,111.486247 C73.036986,115.288553 73.5593358,119.258402 75.5247352,122.665119 C77.4916845,126.073388 80.6645334,128.510524 84.4635822,129.529747 C85.7314817,129.869488 87.0179813,130.037031 88.2967309,130.037031 C90.84648,130.037031 93.3636792,129.368409 95.6328784,128.059088 C99.0366773,126.088901 101.471726,122.914883 102.490076,119.112577 C103.506876,115.311823 102.984526,111.341973 101.019127,107.932154 C99.6241271,105.516735 97.6137778,103.599293 95.2112786,102.319448 L101.192727,79.9787677 C102.631126,80.2518015 104.111376,80.4084857 105.628825,80.4084857 C108.762924,80.4084857 111.746673,79.7848517 114.482422,78.6772032 L126.911868,111.087555 C121.38302,114.840219 118.930921,122.039934 121.42642,128.546205 L121.42642,128.547756 C123.670819,134.399367 129.264767,138 135.185765,138 C136.935715,138 138.713564,137.68508 140.441813,137.021112 C148.019761,134.109268 151.81726,125.570757 148.909461,117.987864 C147.500511,114.31587 144.746162,111.411783 141.154813,109.809261 C138.606614,108.67524 135.853815,108.309126 133.158366,108.686099 L120.33522,75.2534215 C125.772618,70.9190101 129.266317,64.2482981 129.266317,56.7507281 C129.266317,50.1343126 126.546068,44.160147 122.17197,39.8645188 L133.181616,27.6276406 C135.339215,28.8221635 137.755664,29.4659647 140.263563,29.4659647 C140.523963,29.4659647 140.787463,29.4582081 141.049413,29.4457975 C144.977112,29.2394708 148.587061,27.5143937 151.21896,24.5901397 C153.849309,21.6658857 155.185409,17.8915038 154.979259,13.961989" id="icon_01"/>
            </g>
        </g>
    </g>
</svg>