<?xml version="1.0" encoding="UTF-8"?>
<svg width="155px" height="144px" viewBox="0 0 155 144" version="1.1" xmlns="http://www.w3.org/2000/svg" xmlns:xlink="http://www.w3.org/1999/xlink">
    <!-- Generator: Sketch 50.2 (55047) - http://www.bohemiancoding.com/sketch -->
    <title>icon_04 copy</title>
    <desc>Created with Sketch.</desc>
    <defs/>
    <g id="icons" stroke="none" stroke-width="1" fill="none" fill-rule="evenodd">
        <g id="Icons" transform="translate(-678.000000, -950.000000)" fill="#E5EFF0">
            <g id="icon_04-copy" transform="translate(678.000000, 950.000000)">
                <path d="M72.9992132,45 C57.535364,45 45,57.5369376 45,73.0007868 C45,88.4630624 57.535364,101 72.9992132,101 C88.4630624,101 101,88.4630624 101,73.0007868 C101,57.5369376 88.4630624,45 72.9992132,45" id="Fill-11"/>
                <path d="M72.199,134.526336 C37.62625,134.526336 9.49995,106.477861 9.49995,71.9992271 C9.49995,37.5221391 37.62625,9.47366387 72.199,9.47366387 C101.96985,9.47366387 126.9419,30.2773908 133.31085,58.0677322 C127.999,60.4759502 124.29915,65.8009253 124.29915,71.9992271 C124.29915,78.1959833 127.999,83.5209583 133.3124,85.9291764 C126.94345,113.721064 101.96985,134.526336 72.199,134.526336 M155,71.9992271 C155,64.6277305 149.77495,58.4773457 142.817,57.01974 C135.8854,24.4856109 106.8601,0 72.199,0 C32.38725,0 0,32.2976353 0,71.9992271 C0,111.699273 32.38725,144 72.199,144 C106.8601,144 135.8854,119.511298 142.81855,86.9756228 C149.77495,85.5195629 155,79.3676324 155,71.9992271" id="Fill-13"/>
            </g>
        </g>
    </g>
</svg>