<?xml version="1.0" encoding="UTF-8"?>
<svg width="125px" height="151px" viewBox="0 0 125 151" version="1.1" xmlns="http://www.w3.org/2000/svg" xmlns:xlink="http://www.w3.org/1999/xlink">
    <!-- Generator: Sketch 50.2 (55047) - http://www.bohemiancoding.com/sketch -->
    <title>icon_08 copy</title>
    <desc>Created with Sketch.</desc>
    <defs/>
    <g id="icons" stroke="none" stroke-width="1" fill="none" fill-rule="evenodd">
        <g id="Icons" transform="translate(-510.000000, -1141.000000)" fill="#E5EFF0">
            <g id="icon_08-copy" transform="translate(510.000000, 1141.000000)">
                <path d="M108.810348,74.8998288 C99.8697933,74.8998288 92.6222343,82.1465115 92.6222343,91.0875237 C92.6222343,94.0760686 93.4471847,96.8645564 94.8600662,99.268319 L74.9904577,120.498991 C72.7372348,119.307882 70.1715774,118.626149 67.4458549,118.626149 C64.7616878,118.626149 62.2375857,119.290954 60.0105274,120.44513 L43.3222109,103.758831 C45.9309627,99.9469742 47.4623539,95.3410448 47.4623539,90.3765516 C47.4623539,78.9532928 39.3883054,69.4198039 28.634707,67.1606979 L28.634707,31.6120951 C35.1773643,29.5345794 39.9192903,23.4159108 39.9192903,16.186156 C39.9192903,7.2466827 32.6717313,0 23.731177,0 C14.7906227,0 7.54306364,7.2466827 7.54306364,16.186156 C7.54306364,23.4159108 12.2849896,29.5345794 18.8261078,31.6120951 L18.8261078,67.1622368 C8.07404854,69.4198039 0,78.9532928 0,90.3765516 C0,103.48029 10.6258542,114.104859 23.731177,114.104859 C28.3191943,114.104859 32.5886206,112.779866 36.2177869,110.525377 L53.0738638,127.380954 C51.9195489,129.607743 51.2562025,132.130001 51.2562025,134.813844 C51.2562025,143.753317 58.5037615,151 67.4458549,151 C76.3864092,151 83.6339683,143.753317 83.6339683,134.813844 C83.6339683,132.179246 82.99063,129.697 81.8732531,127.49945 L102.153798,105.830191 C104.185392,106.748915 106.435537,107.272141 108.810348,107.272141 C117.752441,107.272141 125,100.025458 125,91.0875237 C125,82.1465115 117.752441,74.8998288 108.810348,74.8998288" id="Fill-77"/>
            </g>
        </g>
    </g>
</svg>