<?xml version="1.0" encoding="UTF-8"?>
<svg width="141px" height="119px" viewBox="0 0 141 119" version="1.1" xmlns="http://www.w3.org/2000/svg" xmlns:xlink="http://www.w3.org/1999/xlink">
    <!-- Generator: Sketch 50.2 (55047) - http://www.bohemiancoding.com/sketch -->
    <title>icon_12 copy 2</title>
    <desc>Created with Sketch.</desc>
    <defs/>
    <g id="icons" stroke="none" stroke-width="1" fill="none" fill-rule="evenodd">
        <g id="Icons" transform="translate(-316.000000, -1354.000000)" fill="#E5EFF0">
            <g id="icon_12-copy-2" transform="translate(316.000000, 1354.000000)">
                <path d="M96.4867807,92.6691979 L21.404242,92.6691979 C21.0503124,91.7253306 20.5758303,90.8418089 19.9916146,90.0402954 L59.858928,29.8091851 C61.4137455,30.3430117 63.0752055,30.6447398 64.8108517,30.6447398 C66.5464979,30.6447398 68.2079579,30.3430117 69.7627754,29.8091851 L103.149622,80.2503803 C99.7246958,83.4997594 97.3306478,87.8121497 96.4867807,92.6691979 M118.566426,74.0781073 C115.37024,74.0781073 112.334791,74.7573823 109.583722,75.9627472 L76.2015127,25.5292886 C78.6280171,22.818378 80.1148306,19.248703 80.1148306,15.3231435 C80.1148306,6.86083191 73.2634331,0 64.8108517,0 C56.3598159,0 49.5068727,6.86083191 49.5068727,15.3231435 C49.5068727,19.2502503 50.9936863,22.818378 53.4201907,25.5292886 L13.5528773,85.7634936 C12.7491943,85.5778148 11.916146,85.4710494 11.0568234,85.4710494 C4.95037817,85.4710494 0,90.4255789 0,96.5390537 C0,102.650981 4.95037817,107.605511 11.0568234,107.605511 C15.8000987,107.605511 19.8355146,104.608345 21.404242,100.405815 L96.4867807,100.405815 C98.3213417,110.963202 107.495692,119 118.566426,119 C130.957054,119 141,108.943945 141,96.5390537 C141,84.1326147 130.957054,74.0781073 118.566426,74.0781073" id="Fill-23"/>
            </g>
        </g>
    </g>
</svg>